<svg width="26" height="26" viewBox="0 0 26 26" fill="none" xmlns="http://www.w3.org/2000/svg">
<mask id="mask0_2_15" style="mask-type:luminance" maskUnits="userSpaceOnUse" x="0" y="0" width="26" height="26">
<path d="M0.939999 24.9397L24.9397 25.06L25.06 1.0603L1.06025 0.940044L0.939999 24.9397Z" fill="white"/>
</mask>
<g mask="url(#mask0_2_15)">
<path d="M7.63197 12.5832L13.0235 8.29012L18.361 12.7969C18.4617 12.8814 18.5781 12.9453 18.7035 12.9849C18.8289 13.0245 18.9608 13.039 19.0918 13.0276C19.2228 13.0161 19.3503 12.9791 19.4669 12.9184C19.5835 12.8577 19.6871 12.7747 19.7717 12.674C19.8562 12.5733 19.9201 12.4569 19.9597 12.3315C19.9993 12.2061 20.0138 12.0742 20.0023 11.9431C19.9909 11.8122 19.9538 11.6847 19.8932 11.5681C19.8325 11.4515 19.7494 11.3479 19.6487 11.2634L13.6739 6.23335C13.4957 6.08536 13.2716 6.00383 13.04 6.00267C12.8084 6.00151 12.5835 6.08079 12.4039 6.22699L6.37975 11.0269C6.27664 11.1088 6.19073 11.2104 6.12695 11.3257C6.06317 11.4411 6.02283 11.5679 6.00828 11.6988C5.99362 11.8297 6.00506 11.9623 6.04192 12.0888C6.07869 12.2154 6.1401 12.3334 6.22268 12.4361C6.30537 12.5385 6.40755 12.6235 6.52323 12.6864C6.63892 12.7492 6.76583 12.7886 6.89676 12.8023C7.02769 12.8159 7.16006 12.8036 7.28625 12.766C7.41234 12.7284 7.52985 12.6662 7.63197 12.5832Z" fill="#00ADB5"/>
<path d="M13.6388 13.2332C13.4607 13.0852 13.2366 13.0037 13.005 13.0026C12.7734 13.0014 12.5485 13.0807 12.3688 13.2269L6.34471 18.0267C6.2416 18.1087 6.15569 18.2103 6.09191 18.3256C6.02813 18.441 5.9878 18.5677 5.97324 18.6987C5.95858 18.8296 5.97002 18.9622 6.00689 19.0887C6.04365 19.2152 6.10506 19.3333 6.18765 19.436C6.26963 19.5391 6.3712 19.625 6.48659 19.6888C6.60187 19.7525 6.72867 19.7928 6.8596 19.8074C6.99052 19.822 7.12308 19.8106 7.24967 19.7738C7.37616 19.737 7.49416 19.6756 7.59688 19.593L12.9885 15.29L18.326 19.7968C18.5294 19.9675 18.7922 20.0505 19.0568 20.0275C19.3213 20.0044 19.5659 19.8772 19.7366 19.6738C19.9074 19.4705 19.9904 19.2076 19.9673 18.9431C19.9443 18.6785 19.8171 18.434 19.6137 18.2632L13.6388 13.2332Z" fill="#00ADB5"/>
</g>
</svg>
