<svg width="25" height="25" viewBox="0 0 25 25" fill="none" xmlns="http://www.w3.org/2000/svg">
<path d="M22.9923 12.6666C22.9923 18.3693 18.3694 22.9922 12.6667 22.9922V24.6666C19.2942 24.6666 24.6667 19.2941 24.6667 12.6666H22.9923ZM12.6667 22.9922C6.96409 22.9922 2.34117 18.3693 2.34117 12.6666H0.666748C0.666748 19.2941 6.03933 24.6666 12.6667 24.6666V22.9922ZM2.34117 12.6666C2.34117 6.96397 6.96409 2.34104 12.6667 2.34104V0.666626C6.03933 0.666626 0.666748 6.03921 0.666748 12.6666H2.34117ZM16.5737 15.1783C13.0289 15.1783 10.1551 12.3045 10.1551 8.75965H8.4807C8.4807 13.2293 12.104 16.8527 16.5737 16.8527V15.1783ZM22.0717 12.0739C20.9464 13.9362 18.9047 15.1783 16.5737 15.1783V16.8527C19.515 16.8527 22.0889 15.2831 23.5049 12.9398L22.0717 12.0739ZM10.1551 8.75965C10.1551 6.42866 11.3972 4.38696 13.2595 3.26161L12.3936 1.82851C10.0503 3.24445 8.4807 5.81835 8.4807 8.75965H10.1551ZM12.6667 2.34104C12.568 2.34104 12.4521 2.29648 12.368 2.20897C12.2968 2.13483 12.2803 2.0647 12.2764 2.03633C12.2717 2.00155 12.274 1.90075 12.3936 1.82851L13.2595 3.26161C13.8212 2.92224 14.0018 2.30084 13.9357 1.81223C13.8672 1.30431 13.4667 0.666626 12.6667 0.666626V2.34104ZM23.5049 12.9398C23.4326 13.0593 23.3318 13.0617 23.2971 13.057C23.2687 13.0531 23.1985 13.0366 23.1244 12.9653C23.0369 12.8813 22.9923 12.7654 22.9923 12.6666H24.6667C24.6667 11.8667 24.029 11.4662 23.5211 11.3976C23.0325 11.3316 22.4111 11.5122 22.0717 12.0739L23.5049 12.9398Z" fill="#00ADB5"/>
</svg>
