<svg width="24" height="24" viewBox="0 0 24 24" fill="none" xmlns="http://www.w3.org/2000/svg">
<path fill-rule="evenodd" clip-rule="evenodd" d="M12 0C12.4624 0 12.8372 0.374835 12.8372 0.837209V3.06977C12.8372 3.53214 12.4624 3.90698 12 3.90698C11.5376 3.90698 11.1628 3.53214 11.1628 3.06977V0.837209C11.1628 0.374835 11.5376 0 12 0ZM2.69989 2.75284C3.01189 2.4116 3.54145 2.38789 3.8827 2.69989L6.36308 4.96771C6.70433 5.27971 6.72804 5.80926 6.41604 6.15051C6.10404 6.49175 5.57447 6.51546 5.23323 6.20346L2.75284 3.93565C2.4116 3.62365 2.38789 3.09409 2.69989 2.75284ZM21.3002 2.75284C21.6122 3.09409 21.5884 3.62365 21.2471 3.93565L18.7668 6.20346C18.4255 6.51546 17.896 6.49175 17.584 6.15051C17.272 5.80926 17.2956 5.27971 17.6369 4.96771L20.1174 2.69989C20.4586 2.38789 20.9881 2.4116 21.3002 2.75284ZM12 7.25581C9.37986 7.25581 7.25581 9.37986 7.25581 12C7.25581 14.6201 9.37986 16.7442 12 16.7442C14.6201 16.7442 16.7442 14.6201 16.7442 12C16.7442 9.37986 14.6201 7.25581 12 7.25581ZM5.5814 12C5.5814 8.4551 8.4551 5.5814 12 5.5814C15.5449 5.5814 18.4186 8.4551 18.4186 12C18.4186 15.5449 15.5449 18.4186 12 18.4186C8.4551 18.4186 5.5814 15.5449 5.5814 12ZM0 12C0 11.5376 0.374835 11.1628 0.837209 11.1628H3.06977C3.53214 11.1628 3.90698 11.5376 3.90698 12C3.90698 12.4624 3.53214 12.8372 3.06977 12.8372H0.837209C0.374835 12.8372 0 12.4624 0 12ZM20.093 12C20.093 11.5376 20.4679 11.1628 20.9302 11.1628H23.1628C23.6252 11.1628 24 11.5376 24 12C24 12.4624 23.6252 12.8372 23.1628 12.8372H20.9302C20.4679 12.8372 20.093 12.4624 20.093 12ZM17.6099 17.6095C17.9368 17.2826 18.4669 17.2826 18.7939 17.6095L21.2743 20.0902C21.6012 20.4172 21.6011 20.9473 21.2742 21.2743C20.9472 21.6012 20.4171 21.6011 20.0902 21.2742L17.6099 18.7935C17.2829 18.4665 17.2829 17.9365 17.6099 17.6095ZM6.39033 17.6096C6.71728 17.9366 6.71728 18.4667 6.39033 18.7937L3.9097 21.2743C3.58275 21.6012 3.05267 21.6012 2.72571 21.2743C2.39876 20.9473 2.39876 20.4172 2.72571 20.0903L5.20634 17.6096C5.53328 17.2827 6.06337 17.2827 6.39033 17.6096ZM12 20.093C12.4624 20.093 12.8372 20.4679 12.8372 20.9302V23.1628C12.8372 23.6252 12.4624 24 12 24C11.5376 24 11.1628 23.6252 11.1628 23.1628V20.9302C11.1628 20.4679 11.5376 20.093 12 20.093Z" fill="#00ADB5"/>
</svg>
